<svg width="125" height="25" viewBox="0 0 125 25" fill="none" xmlns="http://www.w3.org/2000/svg">
<path d="M30.96 21.768V10.552C30.96 10.3387 31.056 10.168 31.248 10.04C31.44 9.912 31.6587 9.84267 31.904 9.832C32.1493 9.82133 32.3947 9.88 32.64 10.008C32.8853 10.1253 33.056 10.3067 33.152 10.552L36.72 19.576L40.24 10.552C40.2827 10.3173 40.4213 10.136 40.656 10.008C40.8907 9.86933 41.136 9.8 41.392 9.8C41.648 9.8 41.8773 9.88 42.08 10.04C42.2933 10.1893 42.4 10.4027 42.4 10.68V21.768C42.4 22.0667 42.2773 22.2747 42.032 22.392C41.7973 22.52 41.5573 22.52 41.312 22.392C41.0773 22.2747 40.96 22.0667 40.96 21.768V12.44L37.392 21.608C37.2747 21.928 37.1253 22.1467 36.944 22.264C36.7733 22.3813 36.6027 22.3813 36.432 22.264C36.272 22.1467 36.144 21.928 36.048 21.608C36.048 21.64 35.4347 20.0933 34.208 16.968L32.368 12.264V21.768C32.368 22.0773 32.256 22.296 32.032 22.424C31.808 22.552 31.5787 22.552 31.344 22.424C31.1093 22.296 30.9813 22.0773 30.96 21.768ZM43.6954 14.024C43.5567 13.7253 43.5674 13.4853 43.7274 13.304C43.898 13.112 44.122 13.0587 44.3994 13.144C44.6874 13.2187 44.9114 13.4213 45.0714 13.752L47.6954 19.528L50.1594 13.752C50.234 13.4107 50.4207 13.2027 50.7194 13.128C51.018 13.0533 51.274 13.1067 51.4874 13.288C51.7007 13.4693 51.7434 13.704 51.6154 13.992L47.8234 22.84C47.45 23.7253 46.7994 24.1787 45.8714 24.2L44.8154 24.152C44.4634 24.1413 44.2287 24.0187 44.1114 23.784C44.0047 23.5493 44.026 23.3253 44.1754 23.112C44.3354 22.9093 44.5487 22.8293 44.8154 22.872L45.9834 22.888C46.0794 22.888 46.1647 22.8453 46.2394 22.76C46.3247 22.6853 46.3834 22.6053 46.4154 22.52C46.458 22.4347 46.5327 22.2747 46.6394 22.04L46.9754 21.32L43.6954 14.024ZM60.1939 10.648C60.1192 10.36 60.1885 10.1307 60.4019 9.96C60.6259 9.78933 60.8712 9.75733 61.1379 9.864C61.4152 9.96 61.5805 10.1893 61.6339 10.552L63.8099 19.528L66.2739 10.552C66.3699 10.2533 66.5405 10.0453 66.7859 9.928C67.0419 9.8 67.2925 9.79467 67.5379 9.912C67.7939 10.0187 67.9699 10.232 68.0659 10.552L70.4819 19.576L72.6579 10.552C72.7325 10.2853 72.8605 10.0933 73.0419 9.976C73.2232 9.848 73.3939 9.79467 73.5539 9.816C73.7245 9.83733 73.8632 9.928 73.9699 10.088C74.0765 10.2373 74.0979 10.4293 74.0339 10.664L71.2339 21.816C71.1059 22.296 70.8552 22.536 70.4819 22.536C70.1085 22.536 69.8472 22.3013 69.6979 21.832L67.1379 12.264L64.5299 21.832C64.4339 22.1413 64.2792 22.3547 64.0659 22.472C63.8525 22.5893 63.6445 22.584 63.4419 22.456C63.2392 22.3387 63.1005 22.1307 63.0259 21.832L60.1939 10.648ZM76.4663 15.896C76.4556 16.2053 76.3329 16.424 76.0983 16.552C75.8636 16.68 75.6289 16.68 75.3943 16.552C75.1596 16.424 75.0423 16.2053 75.0423 15.896C75.0423 15.832 75.0476 15.7413 75.0583 15.624C75.0689 15.5067 75.1276 15.304 75.2343 15.016C75.3516 14.7173 75.5116 14.456 75.7143 14.232C75.9276 14.008 76.2689 13.8053 76.7383 13.624C77.2076 13.4427 77.7623 13.352 78.4023 13.352C79.3836 13.352 80.2263 13.6187 80.9303 14.152C81.6449 14.6747 82.0023 15.2133 82.0023 15.768V20.328C82.0023 20.6907 82.1836 20.888 82.5463 20.92C82.8343 20.9413 83.0263 21.064 83.1223 21.288C83.2289 21.5227 83.2183 21.7413 83.0903 21.944C82.9729 22.1573 82.7916 22.264 82.5463 22.264C81.6289 22.2213 81.0209 21.9813 80.7223 21.544C80.2209 21.96 79.4903 22.2427 78.5303 22.392C78.1463 22.4773 77.7249 22.4933 77.2663 22.44C76.8183 22.3867 76.3969 22.2907 76.0023 22.152C75.6183 22.0133 75.2876 21.7733 75.0103 21.432C74.7329 21.0907 74.5836 20.6747 74.5623 20.184C74.5196 19.5013 74.6263 18.952 74.8823 18.536C75.1383 18.1093 75.5009 17.8107 75.9703 17.64C76.4503 17.4693 77.0049 17.3253 77.6343 17.208C78.2636 17.0907 78.9303 16.9893 79.6343 16.904C79.8689 16.8613 80.0503 16.8133 80.1783 16.76C80.3169 16.7067 80.4076 16.632 80.4503 16.536C80.5036 16.4293 80.5356 16.3493 80.5463 16.296C80.5569 16.232 80.5623 16.12 80.5623 15.96C80.5623 15.704 80.3489 15.4373 79.9223 15.16C79.5063 14.872 78.9943 14.728 78.3863 14.728C77.9596 14.728 77.5969 14.792 77.2983 14.92C77.0103 15.0373 76.8129 15.1707 76.7063 15.32C76.6103 15.4587 76.5463 15.592 76.5143 15.72L76.4663 15.896ZM77.4423 18.536C76.5143 18.6427 76.0503 19.1493 76.0503 20.056C76.0503 20.408 76.2903 20.6853 76.7703 20.888C77.2609 21.0907 77.8476 21.1493 78.5303 21.064C79.1063 20.9893 79.5863 20.8027 79.9703 20.504C80.3649 20.2053 80.5623 19.9387 80.5623 19.704V18.008C80.2529 18.136 79.2129 18.312 77.4423 18.536ZM84.78 10.504C84.78 10.2053 84.8973 9.992 85.132 9.864C85.3667 9.72533 85.6013 9.72 85.836 9.848C86.0707 9.96533 86.188 10.184 86.188 10.504V21.736C86.188 22.0453 86.0707 22.2587 85.836 22.376C85.6013 22.504 85.3667 22.504 85.132 22.376C84.8973 22.248 84.78 22.0347 84.78 21.736V10.504ZM88.4288 10.488C88.4288 10.1787 88.5461 9.96533 88.7808 9.848C89.0154 9.72 89.2501 9.72 89.4848 9.848C89.7301 9.976 89.8528 10.1893 89.8528 10.488V17.176L94.3008 13.208C94.5141 12.9733 94.7594 12.888 95.0368 12.952C95.3141 13.0053 95.4901 13.144 95.5648 13.368C95.6501 13.592 95.5968 13.8267 95.4048 14.072L92.5248 16.648L95.9167 21.24C96.1088 21.528 96.1834 21.7627 96.1408 21.944C96.0981 22.1253 96.0021 22.2587 95.8528 22.344C95.7141 22.44 95.5221 22.44 95.2768 22.344C95.0421 22.2587 94.8234 22.0827 94.6208 21.816L91.4688 17.64L89.8528 18.984V21.768C89.8528 22.0667 89.7301 22.2747 89.4848 22.392C89.2501 22.52 89.0154 22.52 88.7808 22.392C88.5461 22.264 88.4288 22.056 88.4288 21.768V10.488ZM97.3506 10.456C97.3506 10.1467 97.468 9.93867 97.7026 9.832C97.9373 9.71467 98.172 9.72 98.4066 9.848C98.652 9.96533 98.7746 10.168 98.7746 10.456V20.824H105.095C105.404 20.824 105.623 20.9307 105.751 21.144C105.889 21.368 105.895 21.5867 105.767 21.8C105.639 22.024 105.415 22.136 105.095 22.136H97.3506V10.456ZM114.717 17.992C114.717 19.3147 114.354 20.392 113.629 21.224C112.914 22.056 111.97 22.472 110.797 22.472C109.485 22.472 108.482 22.0453 107.789 21.192C107.106 20.3387 106.765 19.304 106.765 18.088C106.765 16.808 107.117 15.6987 107.821 14.76C108.536 13.8107 109.528 13.336 110.797 13.336C111.672 13.336 112.413 13.5653 113.021 14.024C113.629 14.472 114.061 15.0373 114.317 15.72C114.584 16.392 114.717 17.1493 114.717 17.992ZM108.253 18.072C108.253 18.9147 108.461 19.64 108.877 20.248C109.304 20.8453 109.938 21.144 110.781 21.144C111.613 21.144 112.226 20.8453 112.621 20.248C113.026 19.64 113.229 18.8827 113.229 17.976C113.229 17.592 113.192 17.2187 113.117 16.856C113.042 16.4933 112.92 16.1413 112.749 15.8C112.578 15.448 112.328 15.1653 111.997 14.952C111.666 14.7387 111.272 14.632 110.813 14.632C110.354 14.632 109.949 14.7387 109.597 14.952C109.256 15.1653 108.989 15.448 108.797 15.8C108.616 16.1413 108.477 16.504 108.381 16.888C108.296 17.272 108.253 17.6667 108.253 18.072ZM122.383 20.84V20.312C122.213 20.632 121.882 20.904 121.391 21.128C120.911 21.352 120.458 21.464 120.031 21.464C119.519 21.464 119.029 21.3893 118.559 21.24C118.09 21.0907 117.658 20.8667 117.263 20.568C116.879 20.2693 116.57 19.864 116.335 19.352C116.111 18.84 115.999 18.2533 115.999 17.592C115.999 16.248 116.373 15.2027 117.119 14.456C117.866 13.7093 118.821 13.336 119.983 13.336C120.367 13.336 120.757 13.416 121.151 13.576C121.557 13.736 121.866 13.896 122.079 14.056L122.383 14.296V13.752C122.383 13.4427 122.501 13.2293 122.735 13.112C122.981 12.984 123.221 12.984 123.455 13.112C123.69 13.24 123.807 13.4533 123.807 13.752V20.36C123.807 20.808 123.781 21.208 123.727 21.56C123.674 21.912 123.573 22.2693 123.423 22.632C123.274 22.9947 123.077 23.2987 122.831 23.544C122.586 23.7893 122.25 23.9973 121.823 24.168C121.407 24.3493 120.917 24.456 120.351 24.488C119.701 24.5307 119.119 24.4933 118.607 24.376C118.106 24.2587 117.722 24.0987 117.455 23.896C117.199 23.704 116.991 23.5067 116.831 23.304C116.671 23.1013 116.57 22.9253 116.527 22.776L116.463 22.552C116.399 22.3067 116.469 22.088 116.671 21.896C116.885 21.704 117.119 21.6347 117.375 21.688C117.642 21.7413 117.818 21.9387 117.903 22.28C117.925 22.3227 117.962 22.3813 118.015 22.456C118.079 22.5307 118.197 22.6427 118.367 22.792C118.538 22.9413 118.794 23.0533 119.135 23.128C119.477 23.2133 119.866 23.24 120.303 23.208C121.69 23.0907 122.383 22.3013 122.383 20.84ZM120.015 14.68C119.173 14.68 118.538 14.9413 118.111 15.464C117.685 15.9867 117.471 16.664 117.471 17.496C117.471 17.9867 117.546 18.4133 117.695 18.776C117.855 19.1387 118.063 19.416 118.319 19.608C118.575 19.8 118.842 19.9387 119.119 20.024C119.397 20.1093 119.69 20.152 119.999 20.152C120.725 20.152 121.295 19.896 121.711 19.384C122.127 18.8613 122.335 18.264 122.335 17.592C122.335 16.7707 122.122 16.0827 121.695 15.528C121.269 14.9627 120.709 14.68 120.015 14.68Z" fill="white"/>
<path d="M12 8C12 12.118 9.66667 15.5093 6.66667 15.9513V22H17.3333V16.0307H14.182C13.6906 16.0309 13.2135 15.8652 12.8279 15.5604C12.4424 15.2557 12.1711 14.8297 12.0578 14.3515C11.9446 13.8733 11.9961 13.3709 12.204 12.9256C12.4119 12.4803 12.764 12.1182 13.2033 11.898C13.009 11.2449 13.0662 10.5428 13.3637 9.92979C13.6612 9.3168 14.1774 8.8374 14.8107 8.586C14.7003 8.10639 14.6996 7.60807 14.8084 7.12813C14.9173 6.64819 15.133 6.19898 15.4395 5.81394C15.746 5.4289 16.1354 5.11795 16.5788 4.90423C17.0221 4.6905 17.5079 4.57951 18 4.57951C18.4921 4.57951 18.9779 4.6905 19.4212 4.90423C19.8646 5.11795 20.254 5.4289 20.5605 5.81394C20.867 6.19898 21.0827 6.64819 21.1916 7.12813C21.3005 7.60807 21.2997 8.10639 21.1893 8.586C21.8226 8.8374 22.3388 9.3168 22.6363 9.92979C22.9338 10.5428 22.991 11.2449 22.7967 11.898C23.236 12.1182 23.5881 12.4803 23.796 12.9256C24.0039 13.3709 24.0554 13.8733 23.9422 14.3515C23.8289 14.8297 23.5576 15.2557 23.1721 15.5604C22.7865 15.8652 22.3094 16.0309 21.818 16.0307H18.6667V22H23C23.2652 22 23.5196 22.1054 23.7071 22.2929C23.8946 22.4804 24 22.7348 24 23C24 23.2652 23.8946 23.5196 23.7071 23.7071C23.5196 23.8946 23.2652 24 23 24H1C0.734784 24 0.480429 23.8946 0.292893 23.7071C0.105357 23.5196 0 23.2652 0 23C0 22.7348 0.105357 22.4804 0.292893 22.2929C0.480429 22.1054 0.734784 22 1 22H5.33333V15.9513C2.33333 15.5093 0 12.118 0 8C0 3.582 2.68667 0 6 0C9.31333 0 12 3.582 12 8Z" fill="white"/>
<path d="M12 8C12 12.118 9.66667 15.5093 6.66667 15.9513V22H17.3333V16.0307H14.182C13.6906 16.0309 13.2135 15.8652 12.8279 15.5604C12.4424 15.2557 12.1711 14.8297 12.0578 14.3515C11.9446 13.8733 11.9961 13.3709 12.204 12.9256C12.4119 12.4803 12.764 12.1182 13.2033 11.898C13.009 11.2449 13.0662 10.5428 13.3637 9.92979C13.6612 9.3168 14.1774 8.8374 14.8107 8.586C14.7003 8.10639 14.6996 7.60807 14.8084 7.12813C14.9173 6.64819 15.133 6.19898 15.4395 5.81394C15.746 5.4289 16.1354 5.11795 16.5788 4.90423C17.0221 4.6905 17.5079 4.57951 18 4.57951C18.4921 4.57951 18.9779 4.6905 19.4212 4.90423C19.8646 5.11795 20.254 5.4289 20.5605 5.81394C20.867 6.19898 21.0827 6.64819 21.1916 7.12813C21.3005 7.60807 21.2997 8.10639 21.1893 8.586C21.8226 8.8374 22.3388 9.3168 22.6363 9.92979C22.9338 10.5428 22.991 11.2449 22.7967 11.898C23.236 12.1182 23.5881 12.4803 23.796 12.9256C24.0039 13.3709 24.0554 13.8733 23.9422 14.3515C23.8289 14.8297 23.5576 15.2557 23.1721 15.5604C22.7865 15.8652 22.3094 16.0309 21.818 16.0307H18.6667V22H23C23.2652 22 23.5196 22.1054 23.7071 22.2929C23.8946 22.4804 24 22.7348 24 23C24 23.2652 23.8946 23.5196 23.7071 23.7071C23.5196 23.8946 23.2652 24 23 24H1C0.734784 24 0.480429 23.8946 0.292893 23.7071C0.105357 23.5196 0 23.2652 0 23C0 22.7348 0.105357 22.4804 0.292893 22.2929C0.480429 22.1054 0.734784 22 1 22H5.33333V15.9513C2.33333 15.5093 0 12.118 0 8C0 3.582 2.68667 0 6 0C9.31333 0 12 3.582 12 8Z" fill="white"/>
</svg>
